<mxfile host="app.diagrams.net" modified="2021-05-30T19:34:35.839Z" agent="5.0 (X11; Linux x86_64) AppleWebKit/537.36 (KHTML, like Gecko) Chrome/89.0.4389.114 Safari/537.36" etag="2sycBzsG2Zi3H8jzkYuY" version="14.7.3" type="github">
  <diagram id="R2lEEEUBdFMjLlhIrx00" name="Page-1">
    <mxGraphModel dx="980" dy="584" grid="1" gridSize="10" guides="1" tooltips="1" connect="1" arrows="1" fold="1" page="1" pageScale="1" pageWidth="850" pageHeight="1100" math="0" shadow="0" extFonts="Permanent Marker^https://fonts.googleapis.com/css?family=Permanent+Marker">
      <root>
        <mxCell id="0" />
        <mxCell id="1" parent="0" />
        <mxCell id="g2Wc01oiSMR_5NeJt08z-187" value="0,1" style="text;html=1;align=center;verticalAlign=middle;resizable=0;points=[];autosize=1;strokeColor=none;" vertex="1" parent="1">
          <mxGeometry x="355" y="280" width="30" height="20" as="geometry" />
        </mxCell>
        <mxCell id="g2Wc01oiSMR_5NeJt08z-20" value="telResidencial" style="text;html=1;align=center;verticalAlign=middle;resizable=0;points=[];autosize=1;strokeColor=none;" vertex="1" parent="1">
          <mxGeometry x="504" y="90" width="90" height="20" as="geometry" />
        </mxCell>
        <mxCell id="g2Wc01oiSMR_5NeJt08z-60" style="edgeStyle=none;rounded=0;orthogonalLoop=1;jettySize=auto;html=1;exitX=1;exitY=0.5;exitDx=0;exitDy=0;startArrow=none;startFill=0;endArrow=none;endFill=0;entryX=0.5;entryY=0;entryDx=0;entryDy=0;" edge="1" parent="1" source="g2Wc01oiSMR_5NeJt08z-37" target="g2Wc01oiSMR_5NeJt08z-62">
          <mxGeometry relative="1" as="geometry">
            <mxPoint x="584" y="175" as="targetPoint" />
            <Array as="points">
              <mxPoint x="580" y="240" />
            </Array>
          </mxGeometry>
        </mxCell>
        <mxCell id="g2Wc01oiSMR_5NeJt08z-100" style="edgeStyle=none;rounded=0;orthogonalLoop=1;jettySize=auto;html=1;exitX=0.5;exitY=1;exitDx=0;exitDy=0;startArrow=none;startFill=0;endArrow=none;endFill=0;entryX=0.5;entryY=0;entryDx=0;entryDy=0;" edge="1" parent="1" source="g2Wc01oiSMR_5NeJt08z-156" target="g2Wc01oiSMR_5NeJt08z-103">
          <mxGeometry relative="1" as="geometry">
            <mxPoint x="510" y="330" as="targetPoint" />
          </mxGeometry>
        </mxCell>
        <mxCell id="g2Wc01oiSMR_5NeJt08z-143" style="edgeStyle=none;rounded=0;orthogonalLoop=1;jettySize=auto;html=1;exitX=0.5;exitY=1;exitDx=0;exitDy=0;startArrow=none;startFill=0;endArrow=none;endFill=0;entryX=0.5;entryY=0;entryDx=0;entryDy=0;" edge="1" parent="1" source="g2Wc01oiSMR_5NeJt08z-37" target="g2Wc01oiSMR_5NeJt08z-156">
          <mxGeometry relative="1" as="geometry">
            <mxPoint x="273" y="175" as="targetPoint" />
          </mxGeometry>
        </mxCell>
        <mxCell id="g2Wc01oiSMR_5NeJt08z-37" value="Médicos" style="whiteSpace=wrap;html=1;align=center;" vertex="1" parent="1">
          <mxGeometry x="380" y="150" width="109" height="40" as="geometry" />
        </mxCell>
        <mxCell id="g2Wc01oiSMR_5NeJt08z-38" value="telCelular" style="text;html=1;align=center;verticalAlign=middle;resizable=0;points=[];autosize=1;strokeColor=none;" vertex="1" parent="1">
          <mxGeometry x="514" y="120" width="70" height="20" as="geometry" />
        </mxCell>
        <mxCell id="g2Wc01oiSMR_5NeJt08z-39" value="endereço" style="text;html=1;align=center;verticalAlign=middle;resizable=0;points=[];autosize=1;strokeColor=none;" vertex="1" parent="1">
          <mxGeometry x="294" y="90" width="70" height="20" as="geometry" />
        </mxCell>
        <mxCell id="g2Wc01oiSMR_5NeJt08z-40" value="nome" style="text;html=1;align=center;verticalAlign=middle;resizable=0;points=[];autosize=1;strokeColor=none;" vertex="1" parent="1">
          <mxGeometry x="324" y="110" width="50" height="20" as="geometry" />
        </mxCell>
        <mxCell id="g2Wc01oiSMR_5NeJt08z-41" value="" style="endArrow=oval;html=1;rounded=0;endFill=0;" edge="1" parent="1">
          <mxGeometry relative="1" as="geometry">
            <mxPoint x="409" y="150" as="sourcePoint" />
            <mxPoint x="374" y="120" as="targetPoint" />
            <Array as="points">
              <mxPoint x="409" y="140" />
              <mxPoint x="409" y="120" />
            </Array>
          </mxGeometry>
        </mxCell>
        <mxCell id="g2Wc01oiSMR_5NeJt08z-42" value="" style="endArrow=oval;html=1;rounded=0;endFill=0;" edge="1" parent="1">
          <mxGeometry relative="1" as="geometry">
            <mxPoint x="419" y="150" as="sourcePoint" />
            <mxPoint x="359" y="103" as="targetPoint" />
            <Array as="points">
              <mxPoint x="419" y="103" />
            </Array>
          </mxGeometry>
        </mxCell>
        <mxCell id="g2Wc01oiSMR_5NeJt08z-43" value="" style="endArrow=oval;html=1;rounded=0;endFill=0;entryX=-0.044;entryY=0.933;entryDx=0;entryDy=0;entryPerimeter=0;exitX=0.669;exitY=0;exitDx=0;exitDy=0;exitPerimeter=0;" edge="1" parent="1" source="g2Wc01oiSMR_5NeJt08z-37" target="g2Wc01oiSMR_5NeJt08z-20">
          <mxGeometry relative="1" as="geometry">
            <mxPoint x="454.5" y="145" as="sourcePoint" />
            <mxPoint x="514" y="60" as="targetPoint" />
            <Array as="points">
              <mxPoint x="449" y="109" />
            </Array>
          </mxGeometry>
        </mxCell>
        <mxCell id="g2Wc01oiSMR_5NeJt08z-44" value="" style="endArrow=oval;html=1;rounded=0;endFill=0;exitX=0.904;exitY=0.027;exitDx=0;exitDy=0;exitPerimeter=0;" edge="1" parent="1" source="g2Wc01oiSMR_5NeJt08z-37">
          <mxGeometry relative="1" as="geometry">
            <mxPoint x="474.5" y="120" as="sourcePoint" />
            <mxPoint x="514" y="130" as="targetPoint" />
            <Array as="points">
              <mxPoint x="477" y="130" />
            </Array>
          </mxGeometry>
        </mxCell>
        <mxCell id="g2Wc01oiSMR_5NeJt08z-45" value="" style="endArrow=none;html=1;rounded=0;endFill=0;exitX=0.5;exitY=1;exitDx=0;exitDy=0;" edge="1" parent="1" source="g2Wc01oiSMR_5NeJt08z-48" target="g2Wc01oiSMR_5NeJt08z-50">
          <mxGeometry relative="1" as="geometry">
            <mxPoint x="676" y="140" as="sourcePoint" />
            <mxPoint x="611" y="100" as="targetPoint" />
            <Array as="points" />
          </mxGeometry>
        </mxCell>
        <mxCell id="g2Wc01oiSMR_5NeJt08z-80" style="edgeStyle=none;rounded=0;orthogonalLoop=1;jettySize=auto;html=1;startArrow=oval;startFill=0;endArrow=none;endFill=0;exitX=0.358;exitY=1.2;exitDx=0;exitDy=0;exitPerimeter=0;" edge="1" parent="1" source="g2Wc01oiSMR_5NeJt08z-46">
          <mxGeometry relative="1" as="geometry">
            <mxPoint x="434" y="150" as="targetPoint" />
            <Array as="points">
              <mxPoint x="433" y="130" />
            </Array>
          </mxGeometry>
        </mxCell>
        <mxCell id="g2Wc01oiSMR_5NeJt08z-46" value="CMR" style="text;html=1;align=center;verticalAlign=middle;resizable=0;points=[];autosize=1;strokeColor=none;" vertex="1" parent="1">
          <mxGeometry x="419" y="80" width="40" height="20" as="geometry" />
        </mxCell>
        <mxCell id="g2Wc01oiSMR_5NeJt08z-58" style="edgeStyle=none;rounded=0;orthogonalLoop=1;jettySize=auto;html=1;exitX=1;exitY=0.5;exitDx=0;exitDy=0;entryX=0.439;entryY=0;entryDx=0;entryDy=0;entryPerimeter=0;startArrow=none;startFill=0;endArrow=none;endFill=0;" edge="1" parent="1" source="g2Wc01oiSMR_5NeJt08z-48" target="g2Wc01oiSMR_5NeJt08z-55">
          <mxGeometry relative="1" as="geometry" />
        </mxCell>
        <mxCell id="g2Wc01oiSMR_5NeJt08z-59" style="edgeStyle=none;rounded=0;orthogonalLoop=1;jettySize=auto;html=1;startArrow=none;startFill=0;endArrow=none;endFill=0;exitX=0.5;exitY=0;exitDx=0;exitDy=0;" edge="1" parent="1" source="g2Wc01oiSMR_5NeJt08z-48">
          <mxGeometry relative="1" as="geometry">
            <mxPoint x="731" y="210" as="sourcePoint" />
            <mxPoint x="808.1428571428571" y="260" as="targetPoint" />
          </mxGeometry>
        </mxCell>
        <mxCell id="g2Wc01oiSMR_5NeJt08z-48" value="" style="triangle;whiteSpace=wrap;html=1;rotation=90;" vertex="1" parent="1">
          <mxGeometry x="706" y="180" width="30" height="40" as="geometry" />
        </mxCell>
        <mxCell id="g2Wc01oiSMR_5NeJt08z-49" style="edgeStyle=none;rounded=0;orthogonalLoop=1;jettySize=auto;html=1;entryX=0;entryY=0.5;entryDx=0;entryDy=0;startArrow=none;startFill=0;endArrow=none;endFill=0;" edge="1" parent="1" target="g2Wc01oiSMR_5NeJt08z-48">
          <mxGeometry relative="1" as="geometry">
            <mxPoint x="490" y="170" as="sourcePoint" />
            <Array as="points">
              <mxPoint x="721" y="170" />
            </Array>
          </mxGeometry>
        </mxCell>
        <mxCell id="g2Wc01oiSMR_5NeJt08z-50" value="" style="rounded=0;whiteSpace=wrap;html=1;" vertex="1" parent="1">
          <mxGeometry x="607" y="260" width="64" height="20" as="geometry" />
        </mxCell>
        <mxCell id="g2Wc01oiSMR_5NeJt08z-51" value="" style="rounded=0;whiteSpace=wrap;html=1;" vertex="1" parent="1">
          <mxGeometry x="681" y="260" width="90" height="20" as="geometry" />
        </mxCell>
        <mxCell id="g2Wc01oiSMR_5NeJt08z-52" value="" style="rounded=0;whiteSpace=wrap;html=1;" vertex="1" parent="1">
          <mxGeometry x="786" y="260" width="80" height="20" as="geometry" />
        </mxCell>
        <mxCell id="g2Wc01oiSMR_5NeJt08z-54" value="&lt;span style=&quot;color: rgb(0 , 0 , 0) ; font-family: &amp;#34;helvetica&amp;#34; ; font-size: 12px ; font-style: normal ; font-weight: 400 ; letter-spacing: normal ; text-align: center ; text-indent: 0px ; text-transform: none ; word-spacing: 0px ; background-color: rgb(248 , 249 , 250) ; display: inline ; float: none&quot;&gt;o&lt;/span&gt;" style="text;html=1;align=center;verticalAlign=middle;resizable=0;points=[];autosize=1;strokeColor=none;" vertex="1" parent="1">
          <mxGeometry x="711" y="190" width="20" height="20" as="geometry" />
        </mxCell>
        <mxCell id="g2Wc01oiSMR_5NeJt08z-55" value="&lt;span style=&quot;color: rgb(0 , 0 , 0) ; font-family: &amp;#34;helvetica&amp;#34; ; font-size: 12px ; font-style: normal ; font-weight: 400 ; letter-spacing: normal ; text-align: center ; text-indent: 0px ; text-transform: none ; word-spacing: 0px ; background-color: rgb(248 , 249 , 250) ; display: inline ; float: none&quot;&gt;Pediatria&lt;/span&gt;" style="text;html=1;align=center;verticalAlign=middle;resizable=0;points=[];autosize=1;strokeColor=none;" vertex="1" parent="1">
          <mxGeometry x="696" y="260" width="60" height="20" as="geometry" />
        </mxCell>
        <mxCell id="g2Wc01oiSMR_5NeJt08z-56" value="&lt;meta charset=&quot;utf-8&quot;&gt;&lt;span style=&quot;color: rgb(0, 0, 0); font-family: helvetica; font-size: 12px; font-style: normal; font-weight: 400; letter-spacing: normal; text-align: center; text-indent: 0px; text-transform: none; word-spacing: 0px; background-color: rgb(248, 249, 250); display: inline; float: none;&quot;&gt;Ortopedista&lt;/span&gt;" style="text;html=1;align=center;verticalAlign=middle;resizable=0;points=[];autosize=1;strokeColor=none;" vertex="1" parent="1">
          <mxGeometry x="599" y="260" width="80" height="20" as="geometry" />
        </mxCell>
        <mxCell id="g2Wc01oiSMR_5NeJt08z-57" value="&lt;font face=&quot;helvetica&quot;&gt;Cardiologista&lt;/font&gt;" style="text;html=1;align=center;verticalAlign=middle;resizable=0;points=[];autosize=1;strokeColor=none;" vertex="1" parent="1">
          <mxGeometry x="776" y="260" width="90" height="20" as="geometry" />
        </mxCell>
        <mxCell id="g2Wc01oiSMR_5NeJt08z-64" style="edgeStyle=none;rounded=0;orthogonalLoop=1;jettySize=auto;html=1;startArrow=none;startFill=0;endArrow=none;endFill=0;exitX=0;exitY=0.5;exitDx=0;exitDy=0;entryX=1;entryY=0.75;entryDx=0;entryDy=0;" edge="1" parent="1" source="g2Wc01oiSMR_5NeJt08z-62" target="g2Wc01oiSMR_5NeJt08z-63">
          <mxGeometry relative="1" as="geometry">
            <mxPoint x="493" y="550" as="sourcePoint" />
            <mxPoint x="503" y="520" as="targetPoint" />
          </mxGeometry>
        </mxCell>
        <mxCell id="g2Wc01oiSMR_5NeJt08z-135" style="edgeStyle=none;rounded=0;orthogonalLoop=1;jettySize=auto;html=1;exitX=1;exitY=0.5;exitDx=0;exitDy=0;startArrow=none;startFill=0;endArrow=oval;endFill=0;" edge="1" parent="1" source="g2Wc01oiSMR_5NeJt08z-62">
          <mxGeometry relative="1" as="geometry">
            <mxPoint x="639.6666666666667" y="450" as="targetPoint" />
          </mxGeometry>
        </mxCell>
        <mxCell id="g2Wc01oiSMR_5NeJt08z-136" style="edgeStyle=none;rounded=0;orthogonalLoop=1;jettySize=auto;html=1;exitX=1;exitY=0.5;exitDx=0;exitDy=0;startArrow=none;startFill=0;endArrow=oval;endFill=0;" edge="1" parent="1" source="g2Wc01oiSMR_5NeJt08z-62" target="g2Wc01oiSMR_5NeJt08z-92">
          <mxGeometry relative="1" as="geometry" />
        </mxCell>
        <mxCell id="g2Wc01oiSMR_5NeJt08z-137" style="edgeStyle=none;rounded=0;orthogonalLoop=1;jettySize=auto;html=1;exitX=1;exitY=0.5;exitDx=0;exitDy=0;entryX=-0.035;entryY=0.75;entryDx=0;entryDy=0;entryPerimeter=0;startArrow=none;startFill=0;endArrow=oval;endFill=0;" edge="1" parent="1" source="g2Wc01oiSMR_5NeJt08z-62" target="g2Wc01oiSMR_5NeJt08z-91">
          <mxGeometry relative="1" as="geometry" />
        </mxCell>
        <mxCell id="g2Wc01oiSMR_5NeJt08z-62" value="" style="rhombus;whiteSpace=wrap;html=1;" vertex="1" parent="1">
          <mxGeometry x="552" y="400" width="65" height="60" as="geometry" />
        </mxCell>
        <mxCell id="g2Wc01oiSMR_5NeJt08z-131" style="edgeStyle=none;rounded=0;orthogonalLoop=1;jettySize=auto;html=1;startArrow=none;startFill=0;endArrow=oval;endFill=0;entryX=-0.029;entryY=0.55;entryDx=0;entryDy=0;entryPerimeter=0;" edge="1" parent="1" target="g2Wc01oiSMR_5NeJt08z-74">
          <mxGeometry relative="1" as="geometry">
            <mxPoint x="463" y="540" as="targetPoint" />
            <mxPoint x="423" y="442" as="sourcePoint" />
            <Array as="points">
              <mxPoint x="423" y="430" />
              <mxPoint x="423" y="460" />
              <mxPoint x="423" y="580" />
            </Array>
          </mxGeometry>
        </mxCell>
        <mxCell id="g2Wc01oiSMR_5NeJt08z-165" style="edgeStyle=none;rounded=0;orthogonalLoop=1;jettySize=auto;html=1;exitX=0;exitY=0.5;exitDx=0;exitDy=0;startArrow=none;startFill=0;endArrow=none;endFill=0;" edge="1" parent="1" source="g2Wc01oiSMR_5NeJt08z-63">
          <mxGeometry relative="1" as="geometry">
            <mxPoint x="320" y="420" as="targetPoint" />
          </mxGeometry>
        </mxCell>
        <mxCell id="g2Wc01oiSMR_5NeJt08z-181" style="edgeStyle=none;rounded=0;orthogonalLoop=1;jettySize=auto;html=1;exitX=1;exitY=0.5;exitDx=0;exitDy=0;startArrow=none;startFill=0;endArrow=none;endFill=0;entryX=0.5;entryY=1;entryDx=0;entryDy=0;" edge="1" parent="1" source="g2Wc01oiSMR_5NeJt08z-182" target="g2Wc01oiSMR_5NeJt08z-156">
          <mxGeometry relative="1" as="geometry">
            <mxPoint x="330" y="310" as="targetPoint" />
            <Array as="points" />
          </mxGeometry>
        </mxCell>
        <mxCell id="g2Wc01oiSMR_5NeJt08z-63" value="Pacientes" style="whiteSpace=wrap;html=1;align=center;" vertex="1" parent="1">
          <mxGeometry x="380" y="400" width="110" height="40" as="geometry" />
        </mxCell>
        <mxCell id="g2Wc01oiSMR_5NeJt08z-65" value="&lt;font face=&quot;helvetica&quot;&gt;agenda&lt;/font&gt;" style="text;html=1;align=center;verticalAlign=middle;resizable=0;points=[];autosize=1;strokeColor=none;" vertex="1" parent="1">
          <mxGeometry x="557" y="420" width="60" height="20" as="geometry" />
        </mxCell>
        <mxCell id="g2Wc01oiSMR_5NeJt08z-70" value="&lt;font face=&quot;helvetica&quot;&gt;contato&lt;/font&gt;" style="text;html=1;align=center;verticalAlign=middle;resizable=0;points=[];autosize=1;strokeColor=none;" vertex="1" parent="1">
          <mxGeometry x="524" y="450" width="50" height="20" as="geometry" />
        </mxCell>
        <mxCell id="g2Wc01oiSMR_5NeJt08z-71" value="&lt;font face=&quot;helvetica&quot;&gt;endereço&lt;/font&gt;" style="text;html=1;align=center;verticalAlign=middle;resizable=0;points=[];autosize=1;strokeColor=none;" vertex="1" parent="1">
          <mxGeometry x="520.5" y="540" width="70" height="20" as="geometry" />
        </mxCell>
        <mxCell id="g2Wc01oiSMR_5NeJt08z-72" value="&lt;font face=&quot;helvetica&quot;&gt;nome&lt;/font&gt;" style="text;html=1;align=center;verticalAlign=middle;resizable=0;points=[];autosize=1;strokeColor=none;" vertex="1" parent="1">
          <mxGeometry x="524" y="480" width="50" height="20" as="geometry" />
        </mxCell>
        <mxCell id="g2Wc01oiSMR_5NeJt08z-73" value="&lt;font face=&quot;helvetica&quot;&gt;telResidencial&lt;/font&gt;" style="text;html=1;align=center;verticalAlign=middle;resizable=0;points=[];autosize=1;strokeColor=none;" vertex="1" parent="1">
          <mxGeometry x="523" y="500" width="90" height="20" as="geometry" />
        </mxCell>
        <mxCell id="g2Wc01oiSMR_5NeJt08z-74" value="&lt;font face=&quot;helvetica&quot;&gt;telCelular&lt;/font&gt;" style="text;html=1;align=center;verticalAlign=middle;resizable=0;points=[];autosize=1;strokeColor=none;" vertex="1" parent="1">
          <mxGeometry x="523" y="570" width="70" height="20" as="geometry" />
        </mxCell>
        <mxCell id="g2Wc01oiSMR_5NeJt08z-84" value="1,N" style="text;html=1;align=center;verticalAlign=middle;resizable=0;points=[];autosize=1;strokeColor=none;" vertex="1" parent="1">
          <mxGeometry x="726" y="240" width="30" height="20" as="geometry" />
        </mxCell>
        <mxCell id="g2Wc01oiSMR_5NeJt08z-85" value="1,N" style="text;html=1;align=center;verticalAlign=middle;resizable=0;points=[];autosize=1;strokeColor=none;" vertex="1" parent="1">
          <mxGeometry x="617" y="240" width="30" height="20" as="geometry" />
        </mxCell>
        <mxCell id="g2Wc01oiSMR_5NeJt08z-86" value="1,N" style="text;html=1;align=center;verticalAlign=middle;resizable=0;points=[];autosize=1;strokeColor=none;" vertex="1" parent="1">
          <mxGeometry x="806" y="240" width="30" height="20" as="geometry" />
        </mxCell>
        <mxCell id="g2Wc01oiSMR_5NeJt08z-91" value="&lt;font face=&quot;helvetica&quot;&gt;data&lt;/font&gt;" style="text;html=1;align=center;verticalAlign=middle;resizable=0;points=[];autosize=1;strokeColor=none;" vertex="1" parent="1">
          <mxGeometry x="639" y="390" width="40" height="20" as="geometry" />
        </mxCell>
        <mxCell id="g2Wc01oiSMR_5NeJt08z-92" value="&lt;font face=&quot;helvetica&quot;&gt;hora&lt;/font&gt;" style="text;html=1;align=center;verticalAlign=middle;resizable=0;points=[];autosize=1;strokeColor=none;" vertex="1" parent="1">
          <mxGeometry x="641" y="420" width="40" height="20" as="geometry" />
        </mxCell>
        <mxCell id="g2Wc01oiSMR_5NeJt08z-93" value="&lt;font face=&quot;helvetica&quot;&gt;nomeMedico&lt;/font&gt;" style="text;html=1;align=center;verticalAlign=middle;resizable=0;points=[];autosize=1;strokeColor=none;" vertex="1" parent="1">
          <mxGeometry x="639" y="440" width="80" height="20" as="geometry" />
        </mxCell>
        <mxCell id="g2Wc01oiSMR_5NeJt08z-104" style="edgeStyle=none;rounded=0;orthogonalLoop=1;jettySize=auto;html=1;startArrow=none;startFill=0;endArrow=none;endFill=0;exitX=0;exitY=0.5;exitDx=0;exitDy=0;" edge="1" parent="1" source="g2Wc01oiSMR_5NeJt08z-102" target="g2Wc01oiSMR_5NeJt08z-105">
          <mxGeometry relative="1" as="geometry">
            <mxPoint x="150" y="140" as="targetPoint" />
            <mxPoint x="400" y="335" as="sourcePoint" />
          </mxGeometry>
        </mxCell>
        <mxCell id="g2Wc01oiSMR_5NeJt08z-147" style="edgeStyle=none;rounded=0;orthogonalLoop=1;jettySize=auto;html=1;startArrow=none;startFill=0;endArrow=none;endFill=0;entryX=0.5;entryY=0;entryDx=0;entryDy=0;exitX=0.5;exitY=1;exitDx=0;exitDy=0;" edge="1" parent="1" source="g2Wc01oiSMR_5NeJt08z-102" target="g2Wc01oiSMR_5NeJt08z-63">
          <mxGeometry relative="1" as="geometry">
            <mxPoint x="441" y="398" as="targetPoint" />
          </mxGeometry>
        </mxCell>
        <mxCell id="g2Wc01oiSMR_5NeJt08z-164" style="edgeStyle=none;rounded=0;orthogonalLoop=1;jettySize=auto;html=1;exitX=0.5;exitY=0;exitDx=0;exitDy=0;entryX=0.5;entryY=1;entryDx=0;entryDy=0;startArrow=none;startFill=0;endArrow=none;endFill=0;" edge="1" parent="1" source="g2Wc01oiSMR_5NeJt08z-102" target="g2Wc01oiSMR_5NeJt08z-156">
          <mxGeometry relative="1" as="geometry" />
        </mxCell>
        <mxCell id="g2Wc01oiSMR_5NeJt08z-102" value="captura" style="shape=rhombus;perimeter=rhombusPerimeter;whiteSpace=wrap;html=1;align=center;" vertex="1" parent="1">
          <mxGeometry x="307" y="312.5" width="57" height="50" as="geometry" />
        </mxCell>
        <mxCell id="g2Wc01oiSMR_5NeJt08z-107" style="edgeStyle=none;rounded=0;orthogonalLoop=1;jettySize=auto;html=1;exitX=0;exitY=0.5;exitDx=0;exitDy=0;entryX=1;entryY=0.5;entryDx=0;entryDy=0;startArrow=none;startFill=0;endArrow=none;endFill=0;" edge="1" parent="1" source="g2Wc01oiSMR_5NeJt08z-103" target="g2Wc01oiSMR_5NeJt08z-106">
          <mxGeometry relative="1" as="geometry" />
        </mxCell>
        <mxCell id="g2Wc01oiSMR_5NeJt08z-149" style="edgeStyle=none;rounded=0;orthogonalLoop=1;jettySize=auto;html=1;exitX=0.5;exitY=1;exitDx=0;exitDy=0;entryX=0.5;entryY=0;entryDx=0;entryDy=0;startArrow=none;startFill=0;endArrow=none;endFill=0;" edge="1" parent="1" source="g2Wc01oiSMR_5NeJt08z-103" target="g2Wc01oiSMR_5NeJt08z-63">
          <mxGeometry relative="1" as="geometry">
            <Array as="points" />
          </mxGeometry>
        </mxCell>
        <mxCell id="g2Wc01oiSMR_5NeJt08z-103" value="repassa" style="shape=rhombus;perimeter=rhombusPerimeter;whiteSpace=wrap;html=1;align=center;" vertex="1" parent="1">
          <mxGeometry x="496" y="310" width="62" height="52.5" as="geometry" />
        </mxCell>
        <mxCell id="g2Wc01oiSMR_5NeJt08z-105" value="Sintomas" style="whiteSpace=wrap;html=1;align=center;" vertex="1" parent="1">
          <mxGeometry x="200" y="323.13" width="85" height="25" as="geometry" />
        </mxCell>
        <mxCell id="g2Wc01oiSMR_5NeJt08z-106" value="Diagnósticos" style="whiteSpace=wrap;html=1;align=center;" vertex="1" parent="1">
          <mxGeometry x="397" y="323.13" width="73" height="26.25" as="geometry" />
        </mxCell>
        <mxCell id="g2Wc01oiSMR_5NeJt08z-111" style="edgeStyle=none;rounded=0;orthogonalLoop=1;jettySize=auto;html=1;exitX=0;exitY=0.5;exitDx=0;exitDy=0;startArrow=none;startFill=0;endArrow=none;endFill=0;" edge="1" parent="1" source="g2Wc01oiSMR_5NeJt08z-156" target="g2Wc01oiSMR_5NeJt08z-112">
          <mxGeometry relative="1" as="geometry">
            <mxPoint x="600" y="510" as="targetPoint" />
            <mxPoint x="220" y="175" as="sourcePoint" />
          </mxGeometry>
        </mxCell>
        <mxCell id="g2Wc01oiSMR_5NeJt08z-112" value="Exames" style="whiteSpace=wrap;html=1;align=center;" vertex="1" parent="1">
          <mxGeometry x="270" y="244.38" width="75" height="26.25" as="geometry" />
        </mxCell>
        <mxCell id="g2Wc01oiSMR_5NeJt08z-132" style="edgeStyle=none;rounded=0;orthogonalLoop=1;jettySize=auto;html=1;exitX=1;exitY=1;exitDx=0;exitDy=0;startArrow=none;startFill=0;endArrow=oval;endFill=0;" edge="1" parent="1" source="g2Wc01oiSMR_5NeJt08z-63">
          <mxGeometry relative="1" as="geometry">
            <mxPoint x="520" y="460" as="targetPoint" />
            <mxPoint x="498" y="440" as="sourcePoint" />
            <Array as="points">
              <mxPoint x="490" y="460" />
            </Array>
          </mxGeometry>
        </mxCell>
        <mxCell id="g2Wc01oiSMR_5NeJt08z-133" style="edgeStyle=none;rounded=0;orthogonalLoop=1;jettySize=auto;html=1;exitX=0.25;exitY=1;exitDx=0;exitDy=0;startArrow=none;startFill=0;endArrow=oval;endFill=0;" edge="1" parent="1">
          <mxGeometry relative="1" as="geometry">
            <mxPoint x="523" y="490" as="targetPoint" />
            <mxPoint x="471" y="440" as="sourcePoint" />
            <Array as="points">
              <mxPoint x="471" y="460" />
              <mxPoint x="471" y="490" />
            </Array>
          </mxGeometry>
        </mxCell>
        <mxCell id="g2Wc01oiSMR_5NeJt08z-134" style="edgeStyle=none;rounded=0;orthogonalLoop=1;jettySize=auto;html=1;startArrow=none;startFill=0;endArrow=oval;endFill=0;" edge="1" parent="1">
          <mxGeometry relative="1" as="geometry">
            <mxPoint x="523" y="510" as="targetPoint" />
            <mxPoint x="455" y="440" as="sourcePoint" />
            <Array as="points">
              <mxPoint x="455" y="450" />
              <mxPoint x="455" y="490" />
              <mxPoint x="455" y="510" />
            </Array>
          </mxGeometry>
        </mxCell>
        <mxCell id="g2Wc01oiSMR_5NeJt08z-138" style="edgeStyle=none;rounded=0;orthogonalLoop=1;jettySize=auto;html=1;startArrow=none;startFill=0;endArrow=oval;endFill=0;" edge="1" parent="1">
          <mxGeometry relative="1" as="geometry">
            <mxPoint x="520" y="550" as="targetPoint" />
            <mxPoint x="445" y="439" as="sourcePoint" />
            <Array as="points">
              <mxPoint x="444.98" y="459" />
              <mxPoint x="444.98" y="499" />
              <mxPoint x="444.98" y="549" />
            </Array>
          </mxGeometry>
        </mxCell>
        <mxCell id="g2Wc01oiSMR_5NeJt08z-152" style="edgeStyle=none;rounded=0;orthogonalLoop=1;jettySize=auto;html=1;exitX=0.25;exitY=1;exitDx=0;exitDy=0;startArrow=none;startFill=0;endArrow=none;endFill=0;" edge="1" parent="1" source="g2Wc01oiSMR_5NeJt08z-105" target="g2Wc01oiSMR_5NeJt08z-105">
          <mxGeometry relative="1" as="geometry" />
        </mxCell>
        <mxCell id="g2Wc01oiSMR_5NeJt08z-153" style="edgeStyle=none;rounded=0;orthogonalLoop=1;jettySize=auto;html=1;exitX=0;exitY=0;exitDx=0;exitDy=0;entryX=0.25;entryY=0;entryDx=0;entryDy=0;startArrow=none;startFill=0;endArrow=none;endFill=0;" edge="1" parent="1" source="g2Wc01oiSMR_5NeJt08z-105" target="g2Wc01oiSMR_5NeJt08z-105">
          <mxGeometry relative="1" as="geometry" />
        </mxCell>
        <mxCell id="g2Wc01oiSMR_5NeJt08z-155" style="edgeStyle=none;rounded=0;orthogonalLoop=1;jettySize=auto;html=1;exitX=0;exitY=1;exitDx=0;exitDy=0;startArrow=none;startFill=0;endArrow=none;endFill=0;" edge="1" parent="1">
          <mxGeometry relative="1" as="geometry">
            <mxPoint x="233.25" y="187.5" as="sourcePoint" />
            <mxPoint x="233.25" y="187.5" as="targetPoint" />
          </mxGeometry>
        </mxCell>
        <mxCell id="g2Wc01oiSMR_5NeJt08z-156" value="solicita" style="shape=associativeEntity;whiteSpace=wrap;html=1;align=center;" vertex="1" parent="1">
          <mxGeometry x="400" y="235" width="70" height="45" as="geometry" />
        </mxCell>
        <mxCell id="g2Wc01oiSMR_5NeJt08z-157" style="edgeStyle=none;rounded=0;orthogonalLoop=1;jettySize=auto;html=1;exitX=0;exitY=0;exitDx=0;exitDy=0;startArrow=none;startFill=0;endArrow=none;endFill=0;" edge="1" parent="1" source="g2Wc01oiSMR_5NeJt08z-156" target="g2Wc01oiSMR_5NeJt08z-156">
          <mxGeometry relative="1" as="geometry" />
        </mxCell>
        <mxCell id="g2Wc01oiSMR_5NeJt08z-167" style="edgeStyle=none;rounded=0;orthogonalLoop=1;jettySize=auto;html=1;exitX=0;exitY=0.5;exitDx=0;exitDy=0;startArrow=none;startFill=0;endArrow=none;endFill=0;" edge="1" parent="1" source="g2Wc01oiSMR_5NeJt08z-166" target="g2Wc01oiSMR_5NeJt08z-168">
          <mxGeometry relative="1" as="geometry">
            <mxPoint x="200" y="420" as="targetPoint" />
          </mxGeometry>
        </mxCell>
        <mxCell id="g2Wc01oiSMR_5NeJt08z-169" style="edgeStyle=none;rounded=0;orthogonalLoop=1;jettySize=auto;html=1;exitX=0.5;exitY=1;exitDx=0;exitDy=0;startArrow=none;startFill=0;endArrow=oval;endFill=0;entryX=0.472;entryY=-0.19;entryDx=0;entryDy=0;entryPerimeter=0;" edge="1" parent="1" source="g2Wc01oiSMR_5NeJt08z-168" target="g2Wc01oiSMR_5NeJt08z-172">
          <mxGeometry relative="1" as="geometry">
            <mxPoint x="310" y="480" as="targetPoint" />
          </mxGeometry>
        </mxCell>
        <mxCell id="g2Wc01oiSMR_5NeJt08z-170" style="edgeStyle=none;rounded=0;orthogonalLoop=1;jettySize=auto;html=1;exitX=0.5;exitY=1;exitDx=0;exitDy=0;startArrow=none;startFill=0;endArrow=oval;endFill=0;" edge="1" parent="1" source="g2Wc01oiSMR_5NeJt08z-168">
          <mxGeometry relative="1" as="geometry">
            <mxPoint x="130" y="480" as="targetPoint" />
          </mxGeometry>
        </mxCell>
        <mxCell id="g2Wc01oiSMR_5NeJt08z-174" style="edgeStyle=none;rounded=0;orthogonalLoop=1;jettySize=auto;html=1;exitX=0.5;exitY=1;exitDx=0;exitDy=0;startArrow=none;startFill=0;endArrow=oval;endFill=0;" edge="1" parent="1" source="g2Wc01oiSMR_5NeJt08z-166">
          <mxGeometry relative="1" as="geometry">
            <mxPoint x="310" y="480" as="targetPoint" />
          </mxGeometry>
        </mxCell>
        <mxCell id="g2Wc01oiSMR_5NeJt08z-175" style="edgeStyle=none;rounded=0;orthogonalLoop=1;jettySize=auto;html=1;exitX=0.5;exitY=1;exitDx=0;exitDy=0;startArrow=none;startFill=0;endArrow=oval;endFill=0;" edge="1" parent="1" source="g2Wc01oiSMR_5NeJt08z-166">
          <mxGeometry relative="1" as="geometry">
            <mxPoint x="260" y="480" as="targetPoint" />
          </mxGeometry>
        </mxCell>
        <mxCell id="g2Wc01oiSMR_5NeJt08z-166" value="faz exames" style="shape=rhombus;perimeter=rhombusPerimeter;whiteSpace=wrap;html=1;align=center;" vertex="1" parent="1">
          <mxGeometry x="250" y="390" width="74" height="60" as="geometry" />
        </mxCell>
        <mxCell id="g2Wc01oiSMR_5NeJt08z-168" value="Clínicas" style="whiteSpace=wrap;html=1;align=center;" vertex="1" parent="1">
          <mxGeometry x="115" y="405" width="90" height="30" as="geometry" />
        </mxCell>
        <mxCell id="g2Wc01oiSMR_5NeJt08z-172" value="&lt;font face=&quot;helvetica&quot;&gt;foi feito&lt;/font&gt;" style="text;html=1;align=center;verticalAlign=middle;resizable=0;points=[];autosize=1;strokeColor=none;" vertex="1" parent="1">
          <mxGeometry x="170" y="480" width="50" height="20" as="geometry" />
        </mxCell>
        <mxCell id="g2Wc01oiSMR_5NeJt08z-173" value="&lt;font face=&quot;helvetica&quot;&gt;não foi feito&lt;/font&gt;" style="text;html=1;align=center;verticalAlign=middle;resizable=0;points=[];autosize=1;strokeColor=none;" vertex="1" parent="1">
          <mxGeometry x="90" y="480" width="80" height="20" as="geometry" />
        </mxCell>
        <mxCell id="g2Wc01oiSMR_5NeJt08z-176" value="&lt;font face=&quot;helvetica&quot;&gt;data&lt;/font&gt;" style="text;html=1;align=center;verticalAlign=middle;resizable=0;points=[];autosize=1;strokeColor=none;" vertex="1" parent="1">
          <mxGeometry x="235" y="490" width="40" height="20" as="geometry" />
        </mxCell>
        <mxCell id="g2Wc01oiSMR_5NeJt08z-177" value="&lt;font face=&quot;helvetica&quot;&gt;resultado&lt;/font&gt;" style="text;html=1;align=center;verticalAlign=middle;resizable=0;points=[];autosize=1;strokeColor=none;" vertex="1" parent="1">
          <mxGeometry x="285" y="490" width="70" height="20" as="geometry" />
        </mxCell>
        <mxCell id="g2Wc01oiSMR_5NeJt08z-178" style="edgeStyle=none;rounded=0;orthogonalLoop=1;jettySize=auto;html=1;exitX=0.5;exitY=0;exitDx=0;exitDy=0;startArrow=none;startFill=0;endArrow=oval;endFill=0;" edge="1" parent="1" source="g2Wc01oiSMR_5NeJt08z-103" target="g2Wc01oiSMR_5NeJt08z-103">
          <mxGeometry relative="1" as="geometry" />
        </mxCell>
        <mxCell id="g2Wc01oiSMR_5NeJt08z-182" value="faz retorno" style="shape=rhombus;perimeter=rhombusPerimeter;whiteSpace=wrap;html=1;align=center;" vertex="1" parent="1">
          <mxGeometry x="60" y="252.5" width="70" height="60" as="geometry" />
        </mxCell>
        <mxCell id="g2Wc01oiSMR_5NeJt08z-183" value="" style="edgeStyle=none;rounded=0;orthogonalLoop=1;jettySize=auto;html=1;exitX=0.25;exitY=1;exitDx=0;exitDy=0;startArrow=none;startFill=0;endArrow=none;endFill=0;entryX=0.5;entryY=1;entryDx=0;entryDy=0;" edge="1" parent="1" source="g2Wc01oiSMR_5NeJt08z-63" target="g2Wc01oiSMR_5NeJt08z-182">
          <mxGeometry relative="1" as="geometry">
            <mxPoint x="407.5" y="440" as="sourcePoint" />
            <mxPoint x="38" y="190" as="targetPoint" />
            <Array as="points">
              <mxPoint x="408" y="560" />
              <mxPoint x="230" y="560" />
              <mxPoint x="95" y="560" />
            </Array>
          </mxGeometry>
        </mxCell>
        <mxCell id="g2Wc01oiSMR_5NeJt08z-184" value="1,N" style="text;html=1;align=center;verticalAlign=middle;resizable=0;points=[];autosize=1;strokeColor=none;" vertex="1" parent="1">
          <mxGeometry x="345" y="235" width="30" height="20" as="geometry" />
        </mxCell>
        <mxCell id="g2Wc01oiSMR_5NeJt08z-185" value="1,N" style="text;html=1;align=center;verticalAlign=middle;resizable=0;points=[];autosize=1;strokeColor=none;" vertex="1" parent="1">
          <mxGeometry x="440" y="190" width="30" height="20" as="geometry" />
        </mxCell>
        <mxCell id="g2Wc01oiSMR_5NeJt08z-186" value="0, N" style="text;html=1;align=center;verticalAlign=middle;resizable=0;points=[];autosize=1;strokeColor=none;" vertex="1" parent="1">
          <mxGeometry x="275" y="312.5" width="40" height="20" as="geometry" />
        </mxCell>
        <mxCell id="g2Wc01oiSMR_5NeJt08z-188" value="0,N" style="text;html=1;align=center;verticalAlign=middle;resizable=0;points=[];autosize=1;strokeColor=none;" vertex="1" parent="1">
          <mxGeometry x="440" y="303.13" width="30" height="20" as="geometry" />
        </mxCell>
        <mxCell id="g2Wc01oiSMR_5NeJt08z-189" value="0,1" style="text;html=1;align=center;verticalAlign=middle;resizable=0;points=[];autosize=1;strokeColor=none;" vertex="1" parent="1">
          <mxGeometry x="489" y="283.13" width="30" height="20" as="geometry" />
        </mxCell>
        <mxCell id="g2Wc01oiSMR_5NeJt08z-190" value="1,N" style="text;html=1;align=center;verticalAlign=middle;resizable=0;points=[];autosize=1;strokeColor=none;" vertex="1" parent="1">
          <mxGeometry x="410" y="370" width="30" height="20" as="geometry" />
        </mxCell>
        <mxCell id="g2Wc01oiSMR_5NeJt08z-191" value="1,N" style="text;html=1;align=center;verticalAlign=middle;resizable=0;points=[];autosize=1;strokeColor=none;" vertex="1" parent="1">
          <mxGeometry x="440" y="370" width="30" height="20" as="geometry" />
        </mxCell>
        <mxCell id="g2Wc01oiSMR_5NeJt08z-192" value="1, N" style="text;html=1;align=center;verticalAlign=middle;resizable=0;points=[];autosize=1;strokeColor=none;" vertex="1" parent="1">
          <mxGeometry x="195" y="400" width="40" height="20" as="geometry" />
        </mxCell>
        <mxCell id="g2Wc01oiSMR_5NeJt08z-194" value="1,N" style="text;html=1;align=center;verticalAlign=middle;resizable=0;points=[];autosize=1;strokeColor=none;" vertex="1" parent="1">
          <mxGeometry x="355" y="400" width="30" height="20" as="geometry" />
        </mxCell>
        <mxCell id="g2Wc01oiSMR_5NeJt08z-195" value="1,N" style="text;html=1;align=center;verticalAlign=middle;resizable=0;points=[];autosize=1;strokeColor=none;" vertex="1" parent="1">
          <mxGeometry x="489" y="405" width="30" height="20" as="geometry" />
        </mxCell>
        <mxCell id="g2Wc01oiSMR_5NeJt08z-196" value="1,N" style="text;html=1;align=center;verticalAlign=middle;resizable=0;points=[];autosize=1;strokeColor=none;" vertex="1" parent="1">
          <mxGeometry x="484" y="190" width="30" height="20" as="geometry" />
        </mxCell>
        <mxCell id="g2Wc01oiSMR_5NeJt08z-198" value="1,N" style="text;html=1;align=center;verticalAlign=middle;resizable=0;points=[];autosize=1;strokeColor=none;" vertex="1" parent="1">
          <mxGeometry x="374" y="263.13" width="30" height="20" as="geometry" />
        </mxCell>
        <mxCell id="g2Wc01oiSMR_5NeJt08z-199" value="1,N" style="text;html=1;align=center;verticalAlign=middle;resizable=0;points=[];autosize=1;strokeColor=none;" vertex="1" parent="1">
          <mxGeometry x="375" y="440" width="30" height="20" as="geometry" />
        </mxCell>
      </root>
    </mxGraphModel>
  </diagram>
</mxfile>
